<?xml version="1.0" encoding="UTF-8" standalone="no"?>
<!-- Created with Inkscape (http://www.inkscape.org/) -->

<svg
   width="102mm"
   height="83mm"
   viewBox="0 0 102 83"
   version="1.1"
   id="svg1"
   inkscape:version="1.3 (0e150ed6c4, 2023-07-21)"
   sodipodi:docname="isuck.svg"
   xml:space="preserve"
   xmlns:inkscape="http://www.inkscape.org/namespaces/inkscape"
   xmlns:sodipodi="http://sodipodi.sourceforge.net/DTD/sodipodi-0.dtd"
   xmlns="http://www.w3.org/2000/svg"
   xmlns:svg="http://www.w3.org/2000/svg"><sodipodi:namedview
     id="namedview1"
     pagecolor="#ffffff"
     bordercolor="#000000"
     borderopacity="0"
     inkscape:showpageshadow="false"
     inkscape:pageopacity="0.0"
     inkscape:pagecheckerboard="false"
     inkscape:deskcolor="#d1d1d1"
     inkscape:document-units="mm"
     inkscape:clip-to-page="false"
     shape-rendering="auto"
     inkscape:zoom="1.4142136"
     inkscape:cx="157.33125"
     inkscape:cy="101.46982"
     inkscape:window-width="1920"
     inkscape:window-height="991"
     inkscape:window-x="-9"
     inkscape:window-y="-9"
     inkscape:window-maximized="1"
     inkscape:current-layer="layer1"
     showgrid="false" /><defs
     id="defs1" /><g
     inkscape:label="圖層 1"
     inkscape:groupmode="layer"
     id="layer1"><path
       id="path1970-8"
       style="fill:none;fill-opacity:0;stroke:#000000;stroke-width:0.481125;stroke-linecap:square"
       d="m 74.291126,10.637497 h 4.431057 m 0,0 V 39.95526 m 0,0 h -4.431057 m 0,0 V 10.637497 m -7.38331,0 h 4.431045 m 0,0 V 39.95526 m 0,0 h -4.431045 m 0,0 V 10.637497 m -7.383321,0 h 4.431056 m 0,0 V 39.95526 m 0,0 h -4.431056 m 0,0 V 10.637497 m -7.383309,0 h 4.431044 m 0,0 V 39.95526 m 0,0 h -4.431044 m 0,0 V 10.637497 m -7.383322,0 h 4.431056 m 0,0 V 39.95526 m 0,0 h -4.431056 m 0,0 V 10.637497 m -7.38331,0 h 4.431044 m 0,0 V 39.95526 m 0,0 h -4.431044 m 0,0 V 10.637497 m -7.637924,0 h 4.431057 m 0,0 V 39.95526 m 0,0 H 29.73663 m 0,0 V 10.637497 m -7.38331,0 h 4.431057 m 0,0 V 39.95526 m 0,0 H 22.35332 m 0,0 V 10.637497 m 60.621382,0.345949 h 8.44918 m 0,0 v 28.498575 m 0,0 h -8.44918 m 0,0 V 10.983446 M 7.906831,13.248955 h 3.691624 m 0,0 v 26.668879 m 0,0 H 7.906831 m 0,0 V 13.248955 M 14.97,10.637497 h 4.431055 m 0,0 V 39.95526 m 0,0 H 14.97 m 0,0 V 10.637497 m 74.766525,39.158545 h 4.45542 m 0,0 v 26.414277 m 0,0 h -4.45542 m 0,0 V 49.796042 m -7.637912,0 h 4.455421 m 0,0 v 26.414277 m 0,0 h -4.455421 m 0,0 V 49.796042 m -7.383309,0 h 4.45542 m 0,0 v 26.414277 m 0,0 h -4.45542 m 0,0 V 49.796042 m -7.637913,0 h 4.45542 m 0,0 v 26.414277 m 0,0 h -4.45542 m 0,0 V 49.796042 m -7.637923,0 H 63.8949 m 0,0 v 26.414277 m 0,0 h -4.455432 m 0,0 V 49.796042 m -7.637913,0 h 4.455433 m 0,0 v 26.414277 m 0,0 h -4.455433 m 0,0 V 49.796042 m -13.748233,0 h 4.455421 m 0,0 v 26.414277 m 0,0 h -4.455421 m 0,0 V 49.796042 m -7.637924,0 h 4.455431 m 0,0 v 26.414277 m 0,0 h -4.455431 m 0,0 V 49.796042 m -7.383311,0 h 4.455421 m 0,0 v 26.414277 m 0,0 h -4.455421 m 0,0 V 49.796042 m -7.63791,0 h 4.455419 m 0,0 v 26.414277 m 0,0 h -4.455419 m 0,0 V 49.796042 m 34.30881,32.492136 v -2.991499 m 0,0 h 3.023312 m 0,0 v 2.991499 m 45.245607,0 v -2.991499 m 0,0 h 3.150624 m -84.485143,2.991499 v -2.991499 m 0,0 h 3.023325 m 0,0 v 2.991499 m 13.46174,0 v -2.991499 m 0,0 h 3.023324 m 0,0 v 2.991499 M 1.122532,18.204606 h 2.1165753 m 0,0 v 3.0001 m 0,0 H 1.122532 m 0,22.474024 h 2.1165753 m 0,0 v 3.000102 m 0,0 H 1.122532 m 0,32.609246 h 2.1165753 m 0,0 v 3.0001 M 101.12253,46.531443 h -3.023323 m 0,0 v -2.991499 m 0,0 h 3.023323 m -81.734176,0.382769 v 2.518927 m 0,0 h -2.471989 m 0,0 v -2.518927 m 0,0 h 2.471989 m 66.438854,0.08069 v 2.518928 m 0,0 h -2.471989 m 0,0 v -2.518928 m 0,0 h 2.471989 M 1.122532,18.204606 h 2.1165753 m 0,0 v 3.0001 m 0,0 H 1.122532 m 67.901369,22.798702 v 2.518928 m 0,0 h -2.471987 m 0,0 v -2.518928 m 0,0 h 2.471987 M 1.122532,18.204606 h 2.1165753 m 0,0 v 3.0001 m 0,0 H 1.122532 m 51.352667,22.798702 v 2.518928 m 0,0 h -2.47199 m 0,0 v -2.518928 m 0,0 h 2.47199 M 1.122532,18.204606 h 2.1165753 m 0,0 v 3.0001 m 0,0 H 1.122532 M 20.157371,1.4624981 v 2.9914992 m -0.481125,0 h -3.023324 m 0,0 V 1.4624981 M 35.926483,44.003408 v 2.518928 m 0,0 h -2.471989 m 0,0 v -2.518928 m 0,0 h 2.471989 M 1.122532,18.204606 h 2.1165753 m 0,0 v 3.0001 m 0,0 H 1.122532 M 36.224948,1.4624981 v 2.9914992 m 0,0 h -3.023311 m 0,0 V 1.4624981 M 1.122532,18.204606 h 2.1165753 m 0,0 v 3.0001 m 0,0 H 1.122532 M 52.751153,1.4624981 v 2.9914992 m 0,0 H 49.72784 m 0,0 V 1.4624981 M 1.122532,18.204606 h 2.1165753 m 0,0 v 3.0001 m 0,0 H 1.122532 M 69.389877,1.4624981 v 2.9914992 m 0,0 h -3.023324 m 0,0 V 1.4624981 m 0.01244,80.8256799 v -2.991499 m 0,0 h 3.023313 m 0,0 v 2.991499 m 13.748161,0 v -2.991499 m 0,0 h 3.023324 m 0,0 v 2.991499 M 1.122532,18.204606 h 2.1165753 m 0,0 v 3.0001 m 0,0 H 1.122532 M 3.3126872,1.4624981 v 3.0315752 m 0,0 H 1.122532 m 0,-3.0315752 h 99.999998 m 0,0 V 82.288178 m 0,0 H 1.122532 m 0,0 V 1.4624981 m 99.999998,3.2394312 h -3.023323 m 0,0 V 1.4624981 m -11.906023,0 v 2.9914992 m 0,0 h -3.023326 m 0,0 V 1.4624981 M 7.7562654,49.796042 h 4.4554196 m 0,0 v 26.414277 m 0,0 H 7.7562654 m 0,0 V 49.796042" /></g></svg>
